<svg width="378" height="97" viewBox="0 0 378 97" fill="none" xmlns="http://www.w3.org/2000/svg">
<path d="M112.221 3.39246C112.394 1.83471 113.701 0.908714 114.835 0.017334C116.012 1.10776 117.82 1.90394 118.115 3.64343C122.693 34.4523 125.825 65.4429 129.642 96.347C128.128 96.7191 125.8 97.6451 124.77 96.0095C123.8 92.0718 123.454 88.0044 123.013 83.9802C120.728 61.4966 118.236 39.039 115.337 16.6247C113.857 17.8276 114.272 19.9393 113.857 21.6095C110.032 43.7642 106.83 66.0401 104.38 88.3938C104.069 91.267 103.749 94.1835 102.719 96.9095C101.369 96.6586 99.5427 97.3336 98.5129 96.2172C97.535 93.7334 97.1196 91.068 96.6696 88.4457C94.6272 75.5077 92.5502 62.5784 90.4991 49.6491C89.1318 40.4756 86.5442 31.5532 84.796 22.449C84.571 21.1768 84.1816 19.9393 83.7316 18.7277C79.8112 42.5093 76.3063 66.3603 72.3513 90.1333C71.9619 92.2536 72.2561 94.5816 71.2436 96.5547C69.7031 97.3163 67.9204 96.7451 66.3626 96.3297C71.3907 65.7631 76.3582 35.1879 80.6766 4.5175C80.7978 2.76936 82.1219 0.164453 84.2075 1.24623C86.2153 3.8771 87.5134 7.07914 87.7038 10.4023C88.6904 22.6567 92.9829 34.2879 94.7656 46.4124C96.9378 57.4551 98.1235 68.6709 100.252 79.7137C101.239 76.979 101.213 74.0538 101.637 71.2153C104.605 48.524 108.084 25.902 112.221 3.39246Z" fill="white"/>
<path d="M198.772 3.40109C198.78 1.73949 200.269 0.874072 201.446 0C202.891 1.02119 203.947 2.57895 203.618 4.4396C202.752 14.539 203.384 24.6731 203.739 34.7812C204.111 52.9549 204.085 71.1547 202.83 89.3025C202.597 91.5526 202.45 93.82 201.982 96.0354C200.857 97.3336 198.209 97.2297 196.989 96.2691C195.682 93.1449 195.163 89.7092 193.986 86.5158C188.283 64.4563 184.362 41.9555 178.053 20.0431C177.361 17.6199 176.851 15.1102 175.466 12.964C174.947 30.8781 175.397 48.8096 175.327 66.7324C175.483 76.5895 175.137 86.4812 176.236 96.3037C174.479 96.7884 171.9 97.6451 170.533 96.0268C170.369 67.8315 170.395 39.6015 170.178 11.3976C170.256 8.50706 169.858 5.3829 171.251 2.72607C172.134 1.01254 174.384 1.26351 175.985 1.39332C177.577 1.6616 177.915 3.53956 178.478 4.77711C187.011 29.1386 191.13 54.7117 197.534 79.6444C197.768 79.8608 198.235 80.2848 198.469 80.4925C198.694 72.4615 199.1 64.4304 199.1 56.3906C199.663 38.7188 197.023 21.0383 198.772 3.40109Z" fill="white"/>
<path d="M217.69 5.98865C219.36 3.43566 221.714 0.85672 224.95 0.562478C228.083 0.285544 231.536 0.095153 234.366 1.73945C236.296 2.80391 236.789 5.7723 235.05 7.25216C232.047 7.66756 229.044 5.48671 226.067 6.68098C221.523 8.48971 219.273 13.2755 217.993 17.6804C213.311 34.5128 213.986 52.1933 214.955 69.4498C215.483 75.6462 216.192 82.1801 219.645 87.5197C221.359 90.8342 225.651 90.1938 228.672 89.5361C231.805 88.4457 232.852 84.7763 233.665 81.9031C235.327 74.0624 235.413 65.9967 235.318 58.0176C235.05 56.1483 236.512 53.9761 238.581 54.3309C242.579 54.4261 246.655 53.9674 250.61 54.703C253.163 55.7761 251.692 59.5407 249.433 60.0946C246.543 60.8129 243.496 60.3023 240.545 60.5013C240.866 67.9526 240.64 75.5077 238.875 82.7858C237.767 86.8447 236.313 91.1977 232.99 93.993C230.455 95.3777 227.78 97.4374 224.725 96.7018C220.935 96.3037 217.205 94.443 215.362 90.9727C211.052 84.0147 210.091 75.6461 209.598 67.641C209.139 55.7675 208.932 43.868 209.858 32.0118C210.585 22.9335 212.558 13.6649 217.69 5.98865Z" fill="white"/>
<path d="M295.361 0.74431C297.663 -0.692284 299.428 2.29341 299.117 4.36176C298.606 26.1011 300.7 47.7971 303.548 69.3287C304.612 75.8972 305.555 82.9244 309.692 88.3765C311.587 91.0507 315.542 91.9853 318.32 90.1247C322.275 87.4159 323.859 82.5869 324.811 78.1213C329.822 53.9069 328.515 29.0608 329.354 4.50888C329.329 2.91651 330.376 1.02125 332.236 1.31549C334.409 0.926051 334.521 3.79924 334.521 5.26179C333.526 24.8462 334.452 44.5345 332.072 64.041C330.895 74.3741 329.848 85.6505 322.907 93.9498C320.216 97.1086 315.655 97.3076 311.916 96.3384C307.529 94.7979 304.43 90.9122 302.7 86.7236C300.328 80.9166 299.099 74.7029 298.424 68.4806C295.387 47.2519 293.959 25.7895 293.89 4.34445C293.95 3.06363 294.21 1.51453 295.361 0.74431Z" fill="white"/>
<path d="M349.372 2.65681C352.011 -0.398115 356.295 0.441346 359.86 0.484616C364.265 0.545196 368.48 2.68277 371.561 5.74635C373.11 7.32141 373.032 10.1859 370.981 11.2764C369.536 11.7524 368.532 10.6187 367.571 9.77055C363.937 6.06656 358.052 5.72039 353.266 6.68101C346.083 13.5784 342.578 25.201 346.948 34.5561C348.394 37.9053 351.552 39.9563 354.651 41.6179C361.522 45.3479 368.497 49.6317 372.902 56.3041C380.215 66.5939 379.315 82.0243 370.159 90.9208C365.815 95.1181 359.445 98.0865 353.353 96.4335C350.687 95.6633 347.606 95.2392 345.849 92.8334C339.783 86.0485 339.16 76.3731 339.272 67.7016C339.523 64.69 338.64 60.8821 341.626 58.9436C343.132 59.9388 344.318 61.41 344.214 63.3226C344.551 71.4402 343.227 80.6829 348.541 87.5803C351.085 91.3275 356.243 91.466 360.215 90.4102C369.596 87.537 374.668 76.3385 372.219 67.1478C370.721 60.9514 366.143 56.1483 361.332 52.2539C356.589 48.4028 350.358 46.8191 345.953 42.5007C341.877 38.139 340.112 32.0118 340.086 26.1356C339.99 17.5074 343.409 8.88782 349.372 2.65681Z" fill="white"/>
<path d="M10.2576 12.2976C12.698 7.52912 15.9087 2.49239 21.2397 0.683666C27.54 -0.129827 33.8662 1.89525 39.5173 4.52612C45.2724 7.2695 49.0196 12.7822 50.9755 18.693C53.1736 19.2815 55.8218 19.3767 57.3882 21.2547C58.894 23.1153 60.097 25.2269 60.9624 27.4597C63.8615 35.6639 65.6097 44.2748 66.0337 52.9636C66.1549 56.2954 66.0684 59.8696 64.2856 62.8034C62.8404 65.1487 60.3566 66.5247 57.9248 67.6411C58.7729 76.8491 58.5912 86.1437 59.7248 95.3258L59.3094 96.0268C52.213 97.048 44.8656 95.4469 37.8125 96.8662C36.5922 96.2691 34.9739 95.7412 34.9393 94.1142C34.6191 88.1428 34.9912 82.0157 33.6152 76.1654C32.2392 72.3662 27.3755 73.2057 24.3725 74.2182C21.0666 75.4558 22.2263 79.6185 21.984 82.3359C21.5253 86.8793 22.0619 91.5006 21.2484 96.0008C15.6491 97.3682 9.60849 95.6633 3.92269 96.9182C2.17455 95.7931 0.564872 94.1229 0.660068 91.8814C-0.395742 76.001 -0.257275 60.0081 1.60337 44.1882C2.49475 33.1455 5.49776 22.2845 10.2576 12.2976ZM16.7222 10.1427C10.9845 18.7449 8.35364 28.9742 6.75261 39.0736C4.19097 56.3733 3.95731 73.95 5.13428 91.3795C8.99405 91.3968 12.8452 91.4054 16.7049 91.3708C17.2415 84.9148 16.0126 78.2165 18.1156 71.9681C20.3051 68.2122 25.3245 68.2988 29.1323 67.8401C31.8151 68.0045 35.8047 66.8882 37.3192 69.8392C40.2443 76.6328 38.9115 84.1792 39.6645 91.3362C44.6147 91.2583 49.5562 91.3189 54.4977 91.2756C53.3381 70.2287 53.7015 48.9134 48.8379 28.2645C47.4186 22.6999 46.4147 16.5035 42.1049 12.3235C37.6653 8.29069 31.668 6.54255 25.887 5.53866C22.0965 4.69921 18.7127 7.13968 16.7222 10.1427ZM52.4121 23.8596C55.7612 36.3735 56.7478 49.3461 57.7517 62.2149C61.5249 60.7956 62.2778 56.4685 61.8365 52.9203C60.9105 44.1103 59.8027 35.0927 55.9862 26.9924C55.3372 25.4346 53.8833 24.5259 52.4121 23.8596Z" fill="white"/>
<path d="M142.943 1.28955C144.839 0.0519996 147.253 0.424134 149.287 1.06454C152.316 2.08574 155.527 3.53964 157.041 6.55995C162.736 16.668 164.12 28.5329 164.12 39.9564C164.181 56.434 163.601 73.3529 157.95 89.017C156.851 92.3835 154.488 95.4038 151.156 96.7625C146.699 97.3856 141.991 94.6595 140.356 90.4536C137.967 84.863 136.712 78.8483 135.691 72.8769C133.614 58.5283 133.848 43.9633 134.497 29.5108C134.912 21.3846 136.098 13.1717 139.326 5.64261C140.131 3.92042 141.247 2.24151 142.943 1.28955ZM144.311 7.03593C140.633 15.7767 139.819 25.3395 139.542 34.7207C138.997 51.6828 138.841 69.0864 143.982 85.4428C144.735 87.5631 145.877 90.5488 148.603 90.419C151.277 90.5488 152.904 87.9266 153.727 85.7284C155.103 81.7821 155.985 77.68 156.66 73.5606C159.023 58.4591 159.655 43.0373 158.097 27.8146C157.413 21.1509 155.345 14.6603 151.849 8.93985C150.801 5.98012 146.725 5.51279 144.311 7.03593Z" fill="white"/>
<path d="M16.6443 18.1218C24.0523 16.4602 32.5507 15.413 39.4741 19.1863C42.2088 24.8115 43.0656 31.1636 43.0829 37.36C42.78 41.1073 38.2452 41.9641 35.2335 42.5093C28.6131 43.2276 21.3522 44.2141 15.251 40.8823C12.975 39.6361 10.3787 37.7149 10.5778 34.8071C11.0105 30.0213 11.5903 25.1317 13.4942 20.6748C13.9962 19.3074 15.3376 18.5632 16.6443 18.1218ZM23.3167 21.0383C21.4561 21.3325 19.5089 21.6008 17.8386 22.5354C15.5193 25.4952 14.5587 29.3895 14.5673 33.1108C14.4635 35.1186 15.8049 36.8235 17.5184 37.6976C23.2475 39.9217 29.4439 39.238 35.3201 38.1043C37.1634 37.5591 39.9933 36.4687 39.1366 33.9936C38.124 30.2809 38.2106 26.0231 35.9345 22.8037C32.4469 20.0084 27.4621 20.9777 23.3167 21.0383Z" fill="white"/>
</svg>
